<svg height="1241pt" viewBox="-52 0 1241 1241.9063" width="1241pt" xmlns="http://www.w3.org/2000/svg" xmlns:xlink="http://www.w3.org/1999/xlink"><linearGradient id="a" gradientUnits="userSpaceOnUse" x1="133.4603696676" x2="1080.7341570044" y1="927.9096673144" y2="-19.3643200376"><stop offset="0" stop-color="#ff99b5"/><stop offset="1" stop-color="#ffdc68"/></linearGradient><path d="m1035.628906 511.84375c90.691406-105.285156 100.230469-406.894531 101.234375-469.210938.121094-6.585937-4.507812-12.308593-10.980469-13.5625-254.488281-49.429687-513.707031-49.703124-694.1875 110.722657-54.25 108.503906-54.25 271.261719-54.25 271.261719-16.570312-26.542969-30.367187-54.722657-41.171874-84.089844-2.671876-7.023438-10.53125-10.546875-17.550782-7.875-2.050781.78125-3.878906 2.042968-5.335937 3.683594-208.75 233.40625-257.066407 552.722656-152.953125 630.808593 99.074218 74.300781 271.527344 28.300781 436.179687-65.222656 6.542969-3.644531 8.898438-11.90625 5.253907-18.449219-1.050782-1.886718-2.539063-3.496094-4.332032-4.6875l-111.585937-74.394531c135.996093-45.335937 234.058593-14.921875 262.644531-3.6875 58.097656-44.191406 112.050781-93.574219 161.203125-147.542969 4.964844-5.578125 4.464844-14.128906-1.117187-19.089844-.535157-.476562-1.105469-.910156-1.707032-1.296874-64.90625-41.699219-204.011718-99.648438-204.011718-99.648438 105.484374-52.742188 210.96875-54.210938 316.453124-4.402344 5.535157 2.671875 12.175782 1.3125 16.214844-3.316406zm0 0" fill="url(#a)"/><path d="m103.402344 1242-102.945313-34.3125c165.875-497.632812 498.777344-894.414062 848.101563-1010.863281l34.320312 102.945312c-313.167968 104.382813-626.417968 483.039063-779.476562 942.230469zm0 0" fill="#ffe58e"/></svg>